<svg width="60" height="60" viewBox="0 0 60 60" fill="none" xmlns="http://www.w3.org/2000/svg">
<path d="M53.0898 26.5932C52.7794 26.5016 52.4587 26.5423 52.1691 26.705C51.8898 26.8677 51.6829 27.1423 51.6001 27.4677C51.4449 28.1084 51.8484 28.7593 52.5104 28.9321C57.2898 30.2033 57.2898 31.7287 57.2898 32.7355C57.2898 33.5694 55.9656 34.5864 53.7208 35.4915C53.6898 35.3694 53.6587 35.2474 53.6277 35.1254C53.3794 34.1186 53.1415 33.1627 51.1967 32.4101C50.8967 32.2982 50.576 32.3084 50.2863 32.4508C49.9863 32.5932 49.7587 32.8677 49.6553 33.1932C49.4794 33.7932 49.8208 34.4542 50.4415 34.7288C51.4967 35.1864 51.4656 35.6033 51.4346 36.0508C51.4346 36.122 51.4242 36.2033 51.4242 36.2745C47.1415 37.5254 41.4001 38.2067 35.2242 38.2067C29.0898 38.2067 23.3794 37.5254 19.107 36.2949C19.6036 35.6338 21.7553 34.3932 26.6794 33.6203C27.3415 33.5186 27.8173 32.8982 27.7242 32.2474C27.6829 31.922 27.507 31.6372 27.238 31.444C26.9794 31.2508 26.6484 31.1796 26.3277 31.2203C23.7725 31.6271 21.5691 32.1965 19.9656 32.8982C18.2691 33.6304 17.1932 34.505 16.7587 35.4915C14.5036 34.5966 13.1691 33.5694 13.1691 32.7355C13.1691 32.4813 13.3863 31.1288 17.6173 29.644C20.6277 28.5864 24.8484 27.8237 29.4829 27.4779C30.1553 27.4271 30.6725 26.8474 30.6311 26.1965C30.6104 25.8711 30.4656 25.5762 30.2173 25.3627C29.9691 25.1491 29.6484 25.0474 29.3277 25.0677C24.4656 25.4237 20.0173 26.2474 16.8001 27.3762C11.7725 29.1355 10.7173 31.261 10.7173 32.7457C10.7173 34.7898 11.1001 36.8033 11.8553 38.705L13.4691 42.7728C13.5932 43.0677 13.8208 43.3118 14.1208 43.444C14.4208 43.5762 14.7518 43.5762 15.0622 43.4643C15.3622 43.3423 15.6105 43.1186 15.7449 42.8237C15.8794 42.5288 15.8794 42.2033 15.7656 41.8982L14.1518 37.8304C14.0173 37.4847 13.8932 37.1288 13.7794 36.7627C14.9898 37.4542 16.5415 38.0745 18.4242 38.6135C22.9346 39.905 28.8932 40.6169 35.2242 40.6169C41.5553 40.6169 47.5242 39.905 52.0242 38.6135C53.907 38.0745 55.4587 37.4542 56.6691 36.7627C56.5553 37.1186 56.4311 37.4745 56.2967 37.8304L52.9656 46.2508C52.7691 46.7389 52.5311 47.2067 52.2518 47.644C51.8898 48.2135 52.0036 48.9457 52.5104 49.3525C52.7277 49.5254 52.9967 49.6067 53.2656 49.6067C53.3277 49.6067 53.3898 49.6067 53.4518 49.5965C53.7725 49.5457 54.0415 49.3728 54.2173 49.1084C54.6311 48.4881 54.9829 47.8169 55.2518 47.1254L58.5829 38.705C59.338 36.7932 59.7208 34.7898 59.7208 32.7457C59.7415 29.0237 55.5725 27.2949 53.0898 26.5932Z" fill="#F37321"/>
<path d="M32.1415 27.6611L29.7829 32.2984C29.4829 32.8882 29.7311 33.6204 30.3311 33.9153C30.9415 34.2103 31.676 33.9662 31.976 33.3764L34.3346 28.7391C36.1967 25.0984 39.3105 22.2204 43.107 20.6035C43.1173 20.6442 43.138 20.6848 43.1484 20.7255C40.5104 22.9425 38.1208 25.973 36.4036 29.2679L33.9932 33.8747C33.838 34.1594 33.8173 34.4848 33.9105 34.8001C34.0139 35.1052 34.2311 35.3594 34.5208 35.5018C34.8104 35.6442 35.1415 35.6747 35.4622 35.5831C35.7725 35.4815 36.0311 35.2679 36.176 34.9831L38.5863 30.3764C40.138 27.3865 42.3001 24.6408 44.6691 22.6272C44.7311 22.6679 44.7932 22.7086 44.8553 22.7492C44.9173 22.7798 44.9691 22.8204 45.0311 22.8509L43.9449 24.8442C42.8898 26.7865 41.7932 28.8001 40.676 30.8848L38.9277 34.1187C38.607 34.7086 38.8449 35.4408 39.4346 35.756C40.0346 36.0713 40.7794 35.8374 41.1001 35.2577L42.8484 32.0238C43.9656 29.9391 45.0518 27.9357 46.107 26.0035L47.0898 24.1933C47.1001 27.0916 46.3656 29.9492 44.9484 32.5018L44.0484 34.1187C43.8932 34.4035 43.8518 34.7289 43.9449 35.034C44.038 35.3391 44.2449 35.6035 44.5346 35.756C44.7208 35.8577 44.9173 35.9086 45.1242 35.9086C45.238 35.9086 45.3622 35.8882 45.476 35.8577C45.7863 35.7662 46.0553 35.5628 46.2105 35.2781L47.1105 33.6611C49.0242 30.2238 49.8415 26.3594 49.4691 22.4543C49.8415 22.1696 50.1518 21.8137 50.4001 21.417L58.138 9.00009C58.707 8.09501 58.8725 7.01704 58.6242 5.98992C58.376 4.9628 57.7139 4.06789 56.7932 3.51874C55.8725 2.95941 54.776 2.7967 53.7311 3.04077C52.676 3.29501 51.7863 3.92552 51.2277 4.84077L43.5105 17.2577C43.3656 17.4916 43.2415 17.7459 43.1484 18.0001C38.3484 19.7492 34.4484 23.1764 32.1415 27.6611ZM54.9311 5.35941C55.138 5.38992 55.3346 5.46111 55.5208 5.57297C55.6967 5.68484 55.8518 5.81704 55.976 5.98992C56.1001 6.1628 56.1932 6.34586 56.2346 6.54925C56.2863 6.75264 56.2967 6.95602 56.2553 7.15941C56.2242 7.3628 56.1518 7.55602 56.038 7.73908L48.3208 20.156C48.207 20.3289 48.0725 20.4814 47.8967 20.6035C47.7208 20.7255 47.5346 20.817 47.3277 20.8577C47.1208 20.9086 46.9139 20.9187 46.707 20.8781C46.5001 20.8476 46.3036 20.7764 46.1173 20.6645C45.9415 20.5526 45.7863 20.4204 45.6622 20.2475C45.538 20.0848 45.4449 19.8916 45.4036 19.6882C45.3518 19.4848 45.3415 19.2814 45.3829 19.0781C45.4139 18.8747 45.4863 18.6814 45.6001 18.4984L53.3174 6.10179C53.4311 5.92891 53.5656 5.77636 53.7415 5.65433C53.907 5.5323 54.1036 5.44077 54.3105 5.40009C54.4346 5.36958 54.5587 5.35941 54.6829 5.35941C54.7656 5.33908 54.8484 5.34925 54.9311 5.35941Z" fill="#F37321"/>
<path d="M1.82077 46.2508C1.97594 46.322 2.14146 46.3525 2.31732 46.3525C2.49318 46.3525 2.6587 46.3119 2.82422 46.2407C3.38284 45.9864 3.69318 45.3356 3.5587 44.6542C3.51732 44.4305 3.49663 44.2068 3.49663 43.9831V42.8237C3.49663 32.9695 5.0587 23.2271 8.1518 13.8508H28.8518C28.107 16.1898 27.4346 18.5898 26.8656 20.9797C26.7932 21.2949 26.8449 21.6102 27.0208 21.8847C27.1967 22.1593 27.4656 22.3525 27.7967 22.4237C28.4587 22.5661 29.1105 22.1593 29.2656 21.5085C29.876 18.9458 30.6001 16.3729 31.4277 13.8508H33.3105C34.4174 13.8508 35.4518 13.4237 36.238 12.661C37.0243 11.8983 37.4484 10.8712 37.4484 9.78305V6.92542C37.4484 6.76271 37.4174 6.61017 37.3553 6.45763C37.2932 6.30508 37.2001 6.18305 37.0863 6.07119C36.9725 5.95932 36.838 5.8678 36.6932 5.80678C36.5484 5.74576 36.3829 5.71525 36.2174 5.71525H31.6346C31.6863 4.86102 32.0587 4.0678 32.6794 3.45763C33.3622 2.78644 34.2725 2.41017 35.2346 2.41017H35.4105C36.1967 2.41017 36.9829 2.67458 37.6036 3.14237C38.2346 3.61017 38.6898 4.28136 38.8967 5.0339L39.9518 8.57288C40.2001 9.45763 40.438 10.3831 40.676 11.339C40.8311 11.9797 41.4932 12.3864 42.1553 12.2441C42.476 12.1729 42.7553 11.9797 42.9208 11.7051C43.0967 11.4305 43.1484 11.1051 43.0656 10.8C42.838 9.84407 42.5794 8.88814 42.3208 7.94237L41.276 4.40339C40.9243 3.14237 40.1484 2.02373 39.1036 1.23051C38.0484 0.437288 36.7346 0 35.4105 0H9.0518C7.42766 0 5.90698 0.620339 4.7587 1.74915C3.61042 2.87797 2.97939 4.38305 2.97939 5.97966V9.79322C2.97939 10.6576 3.26904 11.5119 3.78629 12.2034C4.26215 12.8339 4.90353 13.3119 5.64835 13.5966C2.58629 23.0644 1.03456 32.8983 1.03456 42.8339V43.9932C1.03456 44.522 1.10697 45.061 1.2518 45.5797C1.33456 45.8847 1.53111 46.1186 1.82077 46.2508ZM34.976 9.78305C34.976 10.2203 34.8001 10.6475 34.4794 10.9525C33.8484 11.5831 32.7311 11.5729 32.1001 10.9525C31.7794 10.6373 31.6036 10.2305 31.6036 9.78305V8.13559H34.9656V9.78305H34.976ZM29.5139 11.4407H7.11732C6.67249 11.4407 6.24835 11.2678 5.92766 10.9525C5.60698 10.6373 5.43111 10.2203 5.43111 9.78305V5.97966C5.43111 5.0339 5.81387 4.13898 6.49663 3.4678C7.17939 2.79661 8.08973 2.42034 9.0518 2.42034H30.3622C29.5863 3.44746 29.1622 4.68814 29.1622 5.97966V9.79322C29.1622 10.3627 29.2863 10.922 29.5139 11.4407Z" fill="#F37321"/>
<path d="M49.7484 50.0035C49.3449 49.6476 48.8794 49.373 48.3725 49.2001C47.8553 49.0272 47.3277 48.9662 46.7794 49.0171L46.0242 49.0882C45.4035 48.1323 44.5449 47.3391 43.5415 46.7899C42.4863 46.2103 41.2966 45.9052 40.0863 45.895H11.9587C10.7484 45.895 9.55869 46.2001 8.50352 46.7798C7.50007 47.3289 6.64145 48.1323 6.02076 49.0781L5.27593 49.0171C4.74834 48.9662 4.2311 49.0272 3.72421 49.1899C3.21731 49.3526 2.76214 49.6069 2.36903 49.9425C1.97593 50.2781 1.65524 50.695 1.41731 51.1628C1.18972 51.6306 1.06559 52.1289 1.03455 52.6476C1.01386 53.1662 1.09662 53.6747 1.28283 54.1628C1.46903 54.651 1.74834 55.0882 2.11041 55.4645C2.47248 55.8408 2.90697 56.1357 3.39317 56.3391C3.98283 56.5933 4.63455 56.695 5.26559 56.634L6.02076 56.5628C6.64145 57.5188 7.50007 58.3018 8.50352 58.8611C9.55869 59.4408 10.7484 59.756 11.9484 59.756H40.076C40.0863 59.756 40.0967 59.756 40.0967 59.756C41.0173 59.756 41.9173 59.5832 42.776 59.2374C43.6346 58.8916 44.4001 58.3832 45.0622 57.7323C45.4242 57.3764 45.7449 56.9899 46.0139 56.573L46.7691 56.6442C47.6691 56.7255 48.5691 56.4916 49.3139 55.9933C49.9656 55.556 50.4518 54.9459 50.7415 54.2238C51.0208 53.5018 51.0829 52.7289 50.8966 51.9764C50.7311 51.1933 50.3277 50.5221 49.7484 50.0035ZM46.9863 51.4171C47.1829 51.3967 47.3794 51.4171 47.5656 51.4781C47.7518 51.5391 47.9173 51.6306 48.0622 51.7526C48.207 51.8747 48.3208 52.0272 48.4139 52.2001C48.4966 52.373 48.5484 52.556 48.5587 52.7493C48.5691 52.9425 48.538 53.1255 48.476 53.3086C48.4035 53.4916 48.3104 53.6442 48.176 53.7865C48.0415 53.9187 47.8863 54.0306 47.7104 54.112C47.4932 54.2035 47.2656 54.2442 47.0173 54.2238H47.007C47.1829 53.2984 47.1829 52.3425 46.9863 51.4171ZM4.91386 51.4171C4.95524 51.4171 5.00697 51.4171 5.04834 51.4272L10.8829 51.9459C11.1104 51.9662 11.3173 52.0679 11.4622 52.2306C11.6173 52.3933 11.7001 52.6069 11.7001 52.8204C11.7001 53.034 11.6173 53.2476 11.4622 53.4103C11.307 53.573 11.1104 53.6747 10.8829 53.695L5.04834 54.2137C4.85179 54.234 4.66559 54.2137 4.47938 54.1526C4.29317 54.0916 4.12766 54.0001 3.98283 53.8781C3.838 53.756 3.72421 53.6035 3.64145 53.4306C3.54834 53.2577 3.50697 53.0747 3.49662 52.8815C3.48628 52.6882 3.51731 52.5052 3.58972 52.3221C3.65179 52.1493 3.75524 51.9865 3.88972 51.8442C4.02421 51.7018 4.17938 51.6001 4.36559 51.5187C4.5311 51.4476 4.72766 51.4171 4.91386 51.4171ZM11.1104 56.1052C11.9484 56.034 12.7139 55.6577 13.2829 55.0476C13.8518 54.4374 14.1622 53.6543 14.1622 52.8204C14.1622 51.9865 13.8518 51.2035 13.2829 50.6035C12.7139 49.9933 11.9484 49.6171 11.1104 49.5459L9.02076 49.3628C9.48628 48.9764 10.0346 48.6916 10.6242 48.5187C11.3484 48.3052 12.1139 48.2645 12.8484 48.4069C13.5829 48.5493 14.2863 48.8747 14.8656 49.3425C15.4449 49.8103 15.9104 50.4204 16.1898 51.1018C16.4794 51.7832 16.5932 52.5357 16.5208 53.2679C16.4484 54.0001 16.1898 54.7221 15.7656 55.3323C15.3518 55.9425 14.7725 56.451 14.1104 56.8069C13.4484 57.1628 12.7035 57.3357 11.9484 57.3357C11.3173 57.3357 10.707 57.2035 10.1277 56.9594C9.72421 56.7865 9.35179 56.5628 9.01041 56.2882L11.1104 56.1052ZM18.4553 55.5052C18.8173 54.651 19.0035 53.7459 19.0035 52.8204C19.0035 51.895 18.8173 50.9899 18.4553 50.1357C18.1656 49.4645 17.7829 48.8543 17.307 48.3052H40.0863C40.9966 48.3052 41.876 48.5696 42.6415 49.0679C43.3967 49.5662 43.9863 50.2679 44.3277 51.0916C44.6794 51.9154 44.7622 52.8204 44.5863 53.695C44.4104 54.5696 43.976 55.373 43.3346 56.0035C42.9001 56.4306 42.4035 56.756 41.8449 56.9798C41.2863 57.2035 40.707 57.3154 40.107 57.3154H17.307C17.7829 56.7865 18.1656 56.1764 18.4553 55.5052Z" fill="#F37321"/>
</svg>
