<svg width="60" height="60" viewBox="0 0 60 60" fill="none" xmlns="http://www.w3.org/2000/svg">
<path d="M32.4515 6.05923C32.394 5.86855 32.2877 5.69898 32.1447 5.56979C32.0017 5.4406 31.8278 5.35696 31.6426 5.32838L28.3613 4.82146L26.8953 1.66558C26.8124 1.48714 26.6847 1.33701 26.5265 1.23207C26.3684 1.12713 26.186 1.07153 26 1.07153C25.814 1.07153 25.6317 1.12713 25.4735 1.23207C25.3154 1.33701 25.1877 1.48714 25.1048 1.66558L23.6388 4.82146L20.3574 5.32811C20.1723 5.3567 19.9983 5.44035 19.8553 5.56955C19.7124 5.69875 19.6061 5.86833 19.5485 6.05902C19.491 6.24972 19.4845 6.45387 19.5299 6.6483C19.5752 6.84272 19.6705 7.01963 19.805 7.15892L22.175 9.61329L21.616 13.0765C21.5843 13.2732 21.6045 13.4756 21.6744 13.6608C21.7443 13.846 21.8611 14.0065 22.0117 14.1242C22.1622 14.2421 22.3405 14.3124 22.5264 14.3274C22.7122 14.3424 22.8983 14.3013 23.0636 14.2091L26.0011 12.5684L28.9386 14.2091C29.1039 14.3013 29.29 14.3424 29.4759 14.3274C29.6618 14.3124 29.8401 14.2421 29.9906 14.1242C30.1412 14.0065 30.258 13.846 30.3279 13.6608C30.3978 13.4756 30.418 13.2732 30.3863 13.0765L29.825 9.61329L32.195 7.15919C32.3295 7.01989 32.4249 6.84298 32.4702 6.64853C32.5155 6.4541 32.5091 6.24993 32.4515 6.05923ZM28.055 8.46673C27.9378 8.58816 27.85 8.73846 27.7994 8.90455C27.7488 9.07064 27.7369 9.24747 27.7646 9.41963L28.0694 11.3081L26.4624 10.4107C26.3196 10.3309 26.1609 10.2892 25.9999 10.2892C25.8388 10.2892 25.6802 10.3309 25.5374 10.4107L23.9304 11.3081L24.2351 9.41963C24.2629 9.24747 24.251 9.07064 24.2004 8.90455C24.1498 8.73846 24.062 8.58816 23.9448 8.46673L22.6614 7.13749L24.4428 6.86253C24.6029 6.83781 24.755 6.77183 24.8861 6.67027C25.0172 6.5687 25.1233 6.43458 25.1954 6.2794L26 4.54771L26.8044 6.2794C26.8765 6.43458 26.9826 6.5687 27.1137 6.67027C27.2448 6.77183 27.3969 6.83781 27.557 6.86253L29.3384 7.13749L28.055 8.46673Z" fill="#F37321"/>
<path d="M45.9515 10.3449C45.894 10.1542 45.7877 9.98462 45.6447 9.85543C45.5017 9.72625 45.3278 9.6426 45.1426 9.61403L41.8613 9.1071L40.3953 5.95121C40.3124 5.77277 40.1847 5.62266 40.0265 5.51771C39.8684 5.41277 39.686 5.35718 39.5 5.35718C39.314 5.35718 39.1316 5.41277 38.9735 5.51771C38.8153 5.62266 38.6876 5.77277 38.6048 5.95121L37.1388 9.1071L33.8574 9.61376C33.6722 9.64235 33.4983 9.72599 33.3553 9.8552C33.2123 9.9844 33.106 10.154 33.0485 10.3447C32.991 10.5353 32.9845 10.7395 33.0299 10.934C33.0752 11.1283 33.1705 11.3053 33.305 11.4446L35.675 13.8989L35.116 17.3621C35.0842 17.5588 35.1045 17.7613 35.1744 17.9465C35.2443 18.1316 35.3611 18.2921 35.5116 18.4099C35.6622 18.5277 35.8405 18.598 36.0263 18.613C36.2122 18.628 36.3983 18.587 36.5636 18.4947L39.5011 16.854L42.4386 18.4947C42.6039 18.587 42.79 18.628 42.9759 18.613C43.1618 18.598 43.3401 18.5277 43.4906 18.4099C43.6412 18.2921 43.758 18.1316 43.8279 17.9465C43.8978 17.7613 43.918 17.5588 43.8863 17.3621L43.325 13.8989L45.6945 11.4448C45.8291 11.3056 45.9245 11.1287 45.97 10.9343C46.0154 10.7398 46.009 10.5356 45.9515 10.3449ZM41.555 12.7524C41.4378 12.8738 41.35 13.0241 41.2994 13.1902C41.2488 13.3562 41.2369 13.5331 41.2646 13.7053L41.5694 15.5937L39.9624 14.6964C39.8196 14.6166 39.6609 14.5749 39.4999 14.5749C39.3388 14.5749 39.1802 14.6166 39.0374 14.6964L37.4304 15.5937L37.7351 13.7053C37.7629 13.5331 37.751 13.3562 37.7004 13.1902C37.6498 13.0241 37.562 12.8738 37.4448 12.7524L36.1614 11.4232L37.9428 11.1481C38.1029 11.1235 38.255 11.0575 38.3861 10.9559C38.5172 10.8544 38.6233 10.7202 38.6954 10.565L39.5 8.83335L40.3044 10.565C40.3765 10.7202 40.4826 10.8544 40.6137 10.9559C40.7448 11.0575 40.8969 11.1235 41.057 11.1481L42.8384 11.4232L41.555 12.7524Z" fill="#F37321"/>
<path d="M18.9515 11.0146C18.894 10.8239 18.7877 10.6543 18.6447 10.5251C18.5017 10.3959 18.3278 10.3123 18.1426 10.2837L14.8613 9.77678L13.3953 6.62089C13.3124 6.44245 13.1847 6.29233 13.0265 6.18739C12.8684 6.08245 12.686 6.02686 12.5 6.02686C12.314 6.02686 12.1317 6.08245 11.9735 6.18739C11.8154 6.29233 11.6877 6.44245 11.6048 6.62089L10.1388 9.77678L6.85741 10.2834C6.67228 10.312 6.49834 10.3957 6.35536 10.5249C6.21237 10.6541 6.10608 10.8236 6.04855 11.0144C5.99101 11.2051 5.98455 11.4092 6.02989 11.6036C6.07523 11.798 6.17055 11.975 6.30503 12.1143L8.67503 14.5686L8.11603 18.0318C8.08427 18.2285 8.10449 18.431 8.1744 18.6161C8.24431 18.8013 8.36113 18.9618 8.51167 19.0795C8.66221 19.1974 8.84049 19.2677 9.02638 19.2827C9.21226 19.2977 9.39836 19.2566 9.56366 19.1644L12.5011 17.5237L15.4386 19.1644C15.6039 19.2566 15.79 19.2977 15.9759 19.2827C16.1618 19.2677 16.3401 19.1974 16.4906 19.0795C16.6412 18.9618 16.758 18.8013 16.8279 18.6161C16.8978 18.431 16.918 18.2285 16.8863 18.0318L16.325 14.5686L18.6945 12.1145C18.8291 11.9753 18.9245 11.7984 18.97 11.604C19.0154 11.4095 19.009 11.2053 18.9515 11.0146ZM14.555 13.4221C14.4378 13.5435 14.35 13.6938 14.2994 13.8599C14.2488 14.0259 14.2369 14.2028 14.2646 14.375L14.5694 16.2634L12.9624 15.3661C12.8196 15.2862 12.6609 15.2446 12.4999 15.2446C12.3389 15.2446 12.1802 15.2862 12.0374 15.3661L10.4304 16.2634L10.7351 14.375C10.7629 14.2028 10.751 14.0259 10.7004 13.8599C10.6498 13.6938 10.562 13.5435 10.4448 13.4221L9.16141 12.0929L10.9428 11.8178C11.1029 11.7932 11.255 11.7272 11.3861 11.6256C11.5172 11.524 11.6233 11.3899 11.6954 11.2347L12.5 9.50303L13.3044 11.2347C13.3765 11.3899 13.4826 11.524 13.6137 11.6256C13.7448 11.7272 13.8969 11.7932 14.057 11.8178L15.8384 12.0929L14.555 13.4221Z" fill="#F37321"/>
<path d="M59 41.7857H53C52.8088 41.7858 52.6217 41.8446 52.4608 41.9552C52.2999 42.0658 52.172 42.2235 52.0923 42.4097C52.0116 42.2728 51.9408 42.1295 51.8804 41.9811L49.9191 37.0781C49.9164 37.0709 49.9134 37.0638 49.9104 37.0567L44.9104 25.271C44.8547 25.1399 44.775 25.0221 44.6759 24.9247C44.5768 24.8274 44.4604 24.7524 44.3337 24.7044C44.207 24.6563 44.0725 24.6362 43.9383 24.6451C43.8041 24.654 43.673 24.6917 43.5528 24.7562C42.3229 25.4149 41.5606 26.2495 41.1222 27.1758C37.6468 24.1458 33.4462 22.2239 29 21.6294V19.2857H30C30.2652 19.2857 30.5196 19.1729 30.7071 18.9719C30.8946 18.771 31 18.4984 31 18.2143C31 17.9301 30.8946 17.6575 30.7071 17.4566C30.5196 17.2558 30.2652 17.1428 30 17.1428H22C21.7348 17.1428 21.4804 17.2558 21.2929 17.4566C21.1054 17.6575 21 17.9301 21 18.2143C21 18.4984 21.1054 18.771 21.2929 18.9719C21.4804 19.1729 21.7348 19.2857 22 19.2857H23V21.6294C11.5014 23.1722 2.50725 33.4653 2.02238 46.0714H1C0.734784 46.0714 0.48043 46.1843 0.292893 46.3852C0.105357 46.5861 0 46.8587 0 47.1428V49.2857C0.000893291 50.1379 0.317251 50.9549 0.879666 51.5574C1.44208 52.1601 2.20462 52.499 3 52.5H30.7664C31.1521 52.9619 31.6541 53.2945 32.2121 53.4581C32.0313 53.9455 31.9646 54.473 32.0178 54.9945C32.0711 55.5159 32.2428 56.0154 32.5178 56.4494C32.7928 56.8833 33.1628 57.2385 33.5955 57.4839C34.0282 57.7293 34.5104 57.8574 35 57.8571H52C52 58.1413 52.1054 58.4138 52.2929 58.6147C52.4804 58.8157 52.7348 58.9285 53 58.9285H59C59.2652 58.9285 59.5196 58.8157 59.7071 58.6147C59.8946 58.4138 60 58.1413 60 57.8571V42.8571C60 42.573 59.8946 42.3004 59.7071 42.0995C59.5196 41.8986 59.2652 41.7857 59 41.7857ZM25 19.2857H27V21.4519C26.6676 21.4372 26.3343 21.4285 26 21.4285C25.6658 21.4285 25.3319 21.438 25 21.4525V19.2857ZM26 23.5714C31.3908 23.5645 36.5952 25.6853 40.6191 29.529C40.5981 31.3064 41.2139 33.1578 41.7066 34.6371C41.83 35.0077 41.9465 35.3578 42.0518 35.696C42.5281 37.2273 42.4781 38.1223 42.378 38.5714H33C32.4207 38.571 31.8537 38.7504 31.3676 39.0879C30.8814 39.4254 30.497 39.9067 30.2607 40.4734C30.0244 41.0401 29.9464 41.668 30.0362 42.2812C30.1259 42.8944 30.3795 43.4665 30.7664 43.9285C30.2725 44.5168 29.9995 45.2801 30 46.0714H4.02375C4.54838 33.5694 14.2044 23.5714 26 23.5714ZM32 41.7857C32.0003 41.5016 32.1058 41.2293 32.2932 41.0284C32.4807 40.8276 32.7349 40.7146 33 40.7143H41C41.2652 40.7143 41.5196 40.8272 41.7071 41.0281C41.8946 41.229 42 41.5015 42 41.7857C42 42.0698 41.8946 42.3424 41.7071 42.5433C41.5196 42.7443 41.2652 42.8571 41 42.8571H33C32.7349 42.8568 32.4807 42.7439 32.2932 42.543C32.1058 42.3421 32.0003 42.0697 32 41.7857ZM32 46.0714C32.0003 45.7874 32.1058 45.515 32.2932 45.3141C32.4807 45.1133 32.7349 45.0003 33 45H41C41.2652 45 41.5196 45.1129 41.7071 45.3138C41.8946 45.5147 42 45.7873 42 46.0714C42 46.3555 41.8946 46.6281 41.7071 46.829C41.5196 47.03 41.2652 47.1428 41 47.1428H33C32.7349 47.1425 32.4807 47.0296 32.2932 46.8287C32.1058 46.6278 32.0003 46.3554 32 46.0714ZM3 50.3571C2.73487 50.3568 2.48069 50.2439 2.29322 50.043C2.10575 49.8421 2.0003 49.5697 2 49.2857V48.2143H30.7664C30.2725 48.8025 29.9995 49.5659 30 50.3571H3ZM33 49.2857H41C41.2652 49.2857 41.5196 49.3986 41.7071 49.5995C41.8946 49.8004 42 50.073 42 50.3571C42 50.6413 41.8946 50.9138 41.7071 51.1147C41.5196 51.3157 41.2652 51.4285 41 51.4285H33C32.7348 51.4285 32.4804 51.3157 32.2929 51.1147C32.1054 50.9138 32 50.6413 32 50.3571C32 50.073 32.1054 49.8004 32.2929 49.5995C32.4804 49.3986 32.7348 49.2857 33 49.2857ZM35 55.7143C34.7348 55.7143 34.4804 55.6014 34.2929 55.4004C34.1054 55.1995 34 54.927 34 54.6428C34 54.3587 34.1054 54.0861 34.2929 53.8852C34.4804 53.6843 34.7348 53.5714 35 53.5714H41C41.2652 53.5714 41.5196 53.6843 41.7071 53.8852C41.8946 54.0861 42 54.3587 42 54.6428C42 54.927 41.8946 55.1995 41.7071 55.4004C41.5196 55.6014 41.2652 55.7143 41 55.7143H35ZM43.828 55.7143C44.0078 55.1707 44.0475 54.5853 43.9429 54.0197C43.8383 53.454 43.5933 52.929 43.2336 52.5C43.727 51.9114 44 51.1483 44 50.3571C44 49.566 43.727 48.8028 43.2336 48.2143C43.3723 48.0483 43.4947 47.8673 43.5986 47.6744C44.8319 48.3581 46.8926 49.2857 49 49.2857C49.2652 49.2857 49.5196 49.1729 49.7071 48.9719C49.8946 48.771 50 48.4984 50 48.2143C50 47.9301 49.8946 47.6575 49.7071 47.4566C49.5196 47.2558 49.2652 47.1428 49 47.1428C46.9323 47.1428 44.7943 45.9606 43.94 45.4308C43.8335 44.8716 43.5897 44.353 43.2336 43.9285C43.6292 43.4566 43.8853 42.8694 43.9696 42.2416C44.0538 41.6136 43.9624 40.973 43.7069 40.4007C43.9469 40.1436 45.0863 38.6758 43.9484 35.0185C43.8366 34.6594 43.7168 34.299 43.5898 33.9176C42.5881 30.908 42.0295 28.7181 43.5684 27.287L48.0849 37.9329L50.042 42.8258C50.445 43.8351 51.1287 44.6868 52 45.2646V55.7143H43.828ZM58 56.7857H54V43.9285H58V56.7857Z" fill="#F37321"/>
<path d="M32.4515 6.05923C32.394 5.86855 32.2877 5.69898 32.1447 5.56979C32.0017 5.4406 31.8278 5.35696 31.6426 5.32838L28.3613 4.82146L26.8953 1.66558C26.8124 1.48714 26.6847 1.33701 26.5265 1.23207C26.3684 1.12713 26.186 1.07153 26 1.07153C25.814 1.07153 25.6317 1.12713 25.4735 1.23207C25.3154 1.33701 25.1877 1.48714 25.1048 1.66558L23.6388 4.82146L20.3574 5.32811C20.1723 5.3567 19.9983 5.44035 19.8553 5.56955C19.7124 5.69875 19.6061 5.86833 19.5485 6.05902C19.491 6.24972 19.4845 6.45387 19.5299 6.6483C19.5752 6.84272 19.6705 7.01963 19.805 7.15892L22.175 9.61329L21.616 13.0765C21.5843 13.2732 21.6045 13.4756 21.6744 13.6608C21.7443 13.846 21.8611 14.0065 22.0117 14.1242C22.1622 14.2421 22.3405 14.3124 22.5264 14.3274C22.7122 14.3424 22.8983 14.3013 23.0636 14.2091L26.0011 12.5684L28.9386 14.2091C29.1039 14.3013 29.29 14.3424 29.4759 14.3274C29.6618 14.3124 29.8401 14.2421 29.9906 14.1242C30.1412 14.0065 30.258 13.846 30.3279 13.6608C30.3978 13.4756 30.418 13.2732 30.3863 13.0765L29.825 9.61329L32.195 7.15919C32.3295 7.01989 32.4249 6.84298 32.4702 6.64853C32.5155 6.4541 32.5091 6.24993 32.4515 6.05923ZM28.055 8.46673C27.9378 8.58816 27.85 8.73846 27.7994 8.90455C27.7488 9.07064 27.7369 9.24747 27.7646 9.41963L28.0694 11.3081L26.4624 10.4107C26.3196 10.3309 26.1609 10.2892 25.9999 10.2892C25.8388 10.2892 25.6802 10.3309 25.5374 10.4107L23.9304 11.3081L24.2351 9.41963C24.2629 9.24747 24.251 9.07064 24.2004 8.90455C24.1498 8.73846 24.062 8.58816 23.9448 8.46673L22.6614 7.13749L24.4428 6.86253C24.6029 6.83781 24.755 6.77183 24.8861 6.67027C25.0172 6.5687 25.1233 6.43458 25.1954 6.2794L26 4.54771L26.8044 6.2794C26.8765 6.43458 26.9826 6.5687 27.1137 6.67027C27.2448 6.77183 27.3969 6.83781 27.557 6.86253L29.3384 7.13749L28.055 8.46673Z" stroke="#F37321" stroke-width="0.2"/>
<path d="M45.9515 10.3449C45.894 10.1542 45.7877 9.98462 45.6447 9.85543C45.5017 9.72625 45.3278 9.6426 45.1426 9.61403L41.8613 9.1071L40.3953 5.95121C40.3124 5.77277 40.1847 5.62266 40.0265 5.51771C39.8684 5.41277 39.686 5.35718 39.5 5.35718C39.314 5.35718 39.1316 5.41277 38.9735 5.51771C38.8153 5.62266 38.6876 5.77277 38.6048 5.95121L37.1388 9.1071L33.8574 9.61376C33.6722 9.64235 33.4983 9.72599 33.3553 9.8552C33.2123 9.9844 33.106 10.154 33.0485 10.3447C32.991 10.5353 32.9845 10.7395 33.0299 10.934C33.0752 11.1283 33.1705 11.3053 33.305 11.4446L35.675 13.8989L35.116 17.3621C35.0842 17.5588 35.1045 17.7613 35.1744 17.9465C35.2443 18.1316 35.3611 18.2921 35.5116 18.4099C35.6622 18.5277 35.8405 18.598 36.0263 18.613C36.2122 18.628 36.3983 18.587 36.5636 18.4947L39.5011 16.854L42.4386 18.4947C42.6039 18.587 42.79 18.628 42.9759 18.613C43.1618 18.598 43.3401 18.5277 43.4906 18.4099C43.6412 18.2921 43.758 18.1316 43.8279 17.9465C43.8978 17.7613 43.918 17.5588 43.8863 17.3621L43.325 13.8989L45.6945 11.4448C45.8291 11.3056 45.9245 11.1287 45.97 10.9343C46.0154 10.7398 46.009 10.5356 45.9515 10.3449ZM41.555 12.7524C41.4378 12.8738 41.35 13.0241 41.2994 13.1902C41.2488 13.3562 41.2369 13.5331 41.2646 13.7053L41.5694 15.5937L39.9624 14.6964C39.8196 14.6166 39.6609 14.5749 39.4999 14.5749C39.3388 14.5749 39.1802 14.6166 39.0374 14.6964L37.4304 15.5937L37.7351 13.7053C37.7629 13.5331 37.751 13.3562 37.7004 13.1902C37.6498 13.0241 37.562 12.8738 37.4448 12.7524L36.1614 11.4232L37.9428 11.1481C38.1029 11.1235 38.255 11.0575 38.3861 10.9559C38.5172 10.8544 38.6233 10.7202 38.6954 10.565L39.5 8.83335L40.3044 10.565C40.3765 10.7202 40.4826 10.8544 40.6137 10.9559C40.7448 11.0575 40.8969 11.1235 41.057 11.1481L42.8384 11.4232L41.555 12.7524Z" stroke="#F37321" stroke-width="0.2"/>
<path d="M18.9515 11.0146C18.894 10.8239 18.7877 10.6543 18.6447 10.5251C18.5017 10.3959 18.3278 10.3123 18.1426 10.2837L14.8613 9.77678L13.3953 6.62089C13.3124 6.44245 13.1847 6.29233 13.0265 6.18739C12.8684 6.08245 12.686 6.02686 12.5 6.02686C12.314 6.02686 12.1317 6.08245 11.9735 6.18739C11.8154 6.29233 11.6877 6.44245 11.6048 6.62089L10.1388 9.77678L6.85741 10.2834C6.67228 10.312 6.49834 10.3957 6.35536 10.5249C6.21237 10.6541 6.10608 10.8236 6.04855 11.0144C5.99101 11.2051 5.98455 11.4092 6.02989 11.6036C6.07523 11.798 6.17055 11.975 6.30503 12.1143L8.67503 14.5686L8.11603 18.0318C8.08427 18.2285 8.10449 18.431 8.1744 18.6161C8.24431 18.8013 8.36113 18.9618 8.51167 19.0795C8.66221 19.1974 8.84049 19.2677 9.02638 19.2827C9.21226 19.2977 9.39836 19.2566 9.56366 19.1644L12.5011 17.5237L15.4386 19.1644C15.6039 19.2566 15.79 19.2977 15.9759 19.2827C16.1618 19.2677 16.3401 19.1974 16.4906 19.0795C16.6412 18.9618 16.758 18.8013 16.8279 18.6161C16.8978 18.431 16.918 18.2285 16.8863 18.0318L16.325 14.5686L18.6945 12.1145C18.8291 11.9753 18.9245 11.7984 18.97 11.604C19.0154 11.4095 19.009 11.2053 18.9515 11.0146ZM14.555 13.4221C14.4378 13.5435 14.35 13.6938 14.2994 13.8599C14.2488 14.0259 14.2369 14.2028 14.2646 14.375L14.5694 16.2634L12.9624 15.3661C12.8196 15.2862 12.6609 15.2446 12.4999 15.2446C12.3389 15.2446 12.1802 15.2862 12.0374 15.3661L10.4304 16.2634L10.7351 14.375C10.7629 14.2028 10.751 14.0259 10.7004 13.8599C10.6498 13.6938 10.562 13.5435 10.4448 13.4221L9.16141 12.0929L10.9428 11.8178C11.1029 11.7932 11.255 11.7272 11.3861 11.6256C11.5172 11.524 11.6233 11.3899 11.6954 11.2347L12.5 9.50303L13.3044 11.2347C13.3765 11.3899 13.4826 11.524 13.6137 11.6256C13.7448 11.7272 13.8969 11.7932 14.057 11.8178L15.8384 12.0929L14.555 13.4221Z" stroke="#F37321" stroke-width="0.2"/>
<path d="M59 41.7857H53C52.8088 41.7858 52.6217 41.8446 52.4608 41.9552C52.2999 42.0658 52.172 42.2235 52.0923 42.4097C52.0116 42.2728 51.9408 42.1295 51.8804 41.9811L49.9191 37.0781C49.9164 37.0709 49.9134 37.0638 49.9104 37.0567L44.9104 25.271C44.8547 25.1399 44.775 25.0221 44.6759 24.9247C44.5768 24.8274 44.4604 24.7524 44.3337 24.7044C44.207 24.6563 44.0725 24.6362 43.9383 24.6451C43.8041 24.654 43.673 24.6917 43.5528 24.7562C42.3229 25.4149 41.5606 26.2495 41.1222 27.1758C37.6468 24.1458 33.4462 22.2239 29 21.6294V19.2857H30C30.2652 19.2857 30.5196 19.1729 30.7071 18.9719C30.8946 18.771 31 18.4984 31 18.2143C31 17.9301 30.8946 17.6575 30.7071 17.4566C30.5196 17.2558 30.2652 17.1428 30 17.1428H22C21.7348 17.1428 21.4804 17.2558 21.2929 17.4566C21.1054 17.6575 21 17.9301 21 18.2143C21 18.4984 21.1054 18.771 21.2929 18.9719C21.4804 19.1729 21.7348 19.2857 22 19.2857H23V21.6294C11.5014 23.1722 2.50725 33.4653 2.02238 46.0714H1C0.734784 46.0714 0.48043 46.1843 0.292893 46.3852C0.105357 46.5861 0 46.8587 0 47.1428V49.2857C0.000893291 50.1379 0.317251 50.9549 0.879666 51.5574C1.44208 52.1601 2.20462 52.499 3 52.5H30.7664C31.1521 52.9619 31.6541 53.2945 32.2121 53.4581C32.0313 53.9455 31.9646 54.473 32.0178 54.9945C32.0711 55.5159 32.2428 56.0154 32.5178 56.4494C32.7928 56.8833 33.1628 57.2385 33.5955 57.4839C34.0282 57.7293 34.5104 57.8574 35 57.8571H52C52 58.1413 52.1054 58.4138 52.2929 58.6147C52.4804 58.8157 52.7348 58.9285 53 58.9285H59C59.2652 58.9285 59.5196 58.8157 59.7071 58.6147C59.8946 58.4138 60 58.1413 60 57.8571V42.8571C60 42.573 59.8946 42.3004 59.7071 42.0995C59.5196 41.8986 59.2652 41.7857 59 41.7857ZM25 19.2857H27V21.4519C26.6676 21.4372 26.3343 21.4285 26 21.4285C25.6658 21.4285 25.3319 21.438 25 21.4525V19.2857ZM26 23.5714C31.3908 23.5645 36.5952 25.6853 40.6191 29.529C40.5981 31.3064 41.2139 33.1578 41.7066 34.6371C41.83 35.0077 41.9465 35.3578 42.0518 35.696C42.5281 37.2273 42.4781 38.1223 42.378 38.5714H33C32.4207 38.571 31.8537 38.7504 31.3676 39.0879C30.8814 39.4254 30.497 39.9067 30.2607 40.4734C30.0244 41.0401 29.9464 41.668 30.0362 42.2812C30.1259 42.8944 30.3795 43.4665 30.7664 43.9285C30.2725 44.5168 29.9995 45.2801 30 46.0714H4.02375C4.54838 33.5694 14.2044 23.5714 26 23.5714ZM32 41.7857C32.0003 41.5016 32.1058 41.2293 32.2932 41.0284C32.4807 40.8276 32.7349 40.7146 33 40.7143H41C41.2652 40.7143 41.5196 40.8272 41.7071 41.0281C41.8946 41.229 42 41.5015 42 41.7857C42 42.0698 41.8946 42.3424 41.7071 42.5433C41.5196 42.7443 41.2652 42.8571 41 42.8571H33C32.7349 42.8568 32.4807 42.7439 32.2932 42.543C32.1058 42.3421 32.0003 42.0697 32 41.7857ZM32 46.0714C32.0003 45.7874 32.1058 45.515 32.2932 45.3141C32.4807 45.1133 32.7349 45.0003 33 45H41C41.2652 45 41.5196 45.1129 41.7071 45.3138C41.8946 45.5147 42 45.7873 42 46.0714C42 46.3555 41.8946 46.6281 41.7071 46.829C41.5196 47.03 41.2652 47.1428 41 47.1428H33C32.7349 47.1425 32.4807 47.0296 32.2932 46.8287C32.1058 46.6278 32.0003 46.3554 32 46.0714ZM3 50.3571C2.73487 50.3568 2.48069 50.2439 2.29322 50.043C2.10575 49.8421 2.0003 49.5697 2 49.2857V48.2143H30.7664C30.2725 48.8025 29.9995 49.5659 30 50.3571H3ZM33 49.2857H41C41.2652 49.2857 41.5196 49.3986 41.7071 49.5995C41.8946 49.8004 42 50.073 42 50.3571C42 50.6413 41.8946 50.9138 41.7071 51.1147C41.5196 51.3157 41.2652 51.4285 41 51.4285H33C32.7348 51.4285 32.4804 51.3157 32.2929 51.1147C32.1054 50.9138 32 50.6413 32 50.3571C32 50.073 32.1054 49.8004 32.2929 49.5995C32.4804 49.3986 32.7348 49.2857 33 49.2857ZM35 55.7143C34.7348 55.7143 34.4804 55.6014 34.2929 55.4004C34.1054 55.1995 34 54.927 34 54.6428C34 54.3587 34.1054 54.0861 34.2929 53.8852C34.4804 53.6843 34.7348 53.5714 35 53.5714H41C41.2652 53.5714 41.5196 53.6843 41.7071 53.8852C41.8946 54.0861 42 54.3587 42 54.6428C42 54.927 41.8946 55.1995 41.7071 55.4004C41.5196 55.6014 41.2652 55.7143 41 55.7143H35ZM43.828 55.7143C44.0078 55.1707 44.0475 54.5853 43.9429 54.0197C43.8383 53.454 43.5933 52.929 43.2336 52.5C43.727 51.9114 44 51.1483 44 50.3571C44 49.566 43.727 48.8028 43.2336 48.2143C43.3723 48.0483 43.4947 47.8673 43.5986 47.6744C44.8319 48.3581 46.8926 49.2857 49 49.2857C49.2652 49.2857 49.5196 49.1729 49.7071 48.9719C49.8946 48.771 50 48.4984 50 48.2143C50 47.9301 49.8946 47.6575 49.7071 47.4566C49.5196 47.2558 49.2652 47.1428 49 47.1428C46.9323 47.1428 44.7943 45.9606 43.94 45.4308C43.8335 44.8716 43.5897 44.353 43.2336 43.9285C43.6292 43.4566 43.8853 42.8694 43.9696 42.2416C44.0538 41.6136 43.9624 40.973 43.7069 40.4007C43.9469 40.1436 45.0863 38.6758 43.9484 35.0185C43.8366 34.6594 43.7168 34.299 43.5898 33.9176C42.5881 30.908 42.0295 28.7181 43.5684 27.287L48.0849 37.9329L50.042 42.8258C50.445 43.8351 51.1287 44.6868 52 45.2646V55.7143H43.828ZM58 56.7857H54V43.9285H58V56.7857Z" stroke="#F37321" stroke-width="0.2"/>
</svg>
